<svg xmlns="http://www.w3.org/2000/svg" xmlns:xlink="http://www.w3.org/1999/xlink" version="1.1" x="0px" y="0px" viewBox="0 0 96 120" enable-background="new 0 0 96 96" xml:space="preserve"><g><path fill="none" stroke="#000000" d="M16.49,88c5.32-4.947,11.023-9.58,16.982-13.963c-5.341-2.987-9.625-7.594-12.297-13.123"/><path fill="none" stroke="#000000" d="M20.735,35.946c2.627-5.924,7.114-10.838,12.736-13.98C27.514,17.58,21.811,12.947,16.49,8"/><path fill="none" stroke="#000000" d="M77.786,48.774c0.58-0.251,1.145-0.526,1.724-0.771c-0.579-0.248-1.144-0.523-1.724-0.773"/><path fill="none" stroke="#000000" d="M77.786,47.229L33.472,21.966"/><path fill="none" stroke="#000000" d="M33.473,74.037l44.313-25.263"/><path fill="none" stroke="#000000" d="M21.176,60.914c1.83-2.814,3.027-7.179,3.027-12.14c0-5.364-1.382-10.076-3.468-12.828   c-1.638,3.686-2.561,7.759-2.561,12.054C18.175,52.64,19.283,57.001,21.176,60.914z"/></g><text x="0" y="111" fill="#000000" font-size="5px" font-weight="bold" font-family="'Helvetica Neue', Helvetica, Arial-Unicode, Arial, Sans-serif">Created by vectoriconset10</text><text x="0" y="116" fill="#000000" font-size="5px" font-weight="bold" font-family="'Helvetica Neue', Helvetica, Arial-Unicode, Arial, Sans-serif">from the Noun Project</text></svg>