<svg width="427" height="427" viewBox="0 0 427 427" fill="none" xmlns="http://www.w3.org/2000/svg">
<path d="M213.502 1.5L213.498 1.5C157.292 1.56359 103.407 23.9195 63.6632 63.6631C23.9197 103.407 1.56379 157.292 1.50019 213.498C1.4736 233.034 4.18095 252.478 9.54346 271.264C9.83181 272.356 10.3344 273.379 11.0222 274.275C11.7134 275.176 12.5778 275.929 13.5644 276.491C14.5509 277.052 15.6398 277.411 16.767 277.546C17.8943 277.68 19.037 277.588 20.1282 277.275C21.2193 276.962 22.2368 276.434 23.1209 275.721C24.0049 275.009 24.7376 274.127 25.276 273.128C25.8143 272.128 26.1474 271.031 26.2557 269.901C26.3633 268.778 26.2465 267.644 25.9122 266.566C20.9905 249.309 18.5069 231.448 18.5335 213.502V213.5C18.5335 161.792 39.0746 112.201 75.6379 75.6377C112.201 39.0744 161.792 18.5333 213.5 18.5333C265.208 18.5333 314.799 39.0744 351.362 75.6377C387.925 112.201 408.466 161.792 408.466 213.5V213.502C408.494 231.448 406.012 249.309 401.091 266.566C400.757 267.644 400.64 268.778 400.748 269.901C400.856 271.031 401.189 272.128 401.728 273.128C402.266 274.127 402.999 275.009 403.883 275.721C404.767 276.434 405.784 276.962 406.875 277.275C407.966 277.588 409.109 277.68 410.236 277.546C411.364 277.411 412.453 277.052 413.439 276.491C414.426 275.929 415.29 275.176 415.981 274.275C416.669 273.379 417.172 272.355 417.46 271.263C422.821 252.477 425.528 233.034 425.5 213.498C425.436 157.292 403.08 103.407 363.337 63.6631C323.593 23.9195 269.708 1.56359 213.502 1.5Z" fill="#11ABFE" stroke="#11ABFE" stroke-width="3"/>
<path d="M55.2693 307.758L55.2667 307.761C49.6979 314.58 46.7472 323.163 46.9462 331.965C47.1452 340.766 50.4808 349.207 56.352 355.768L56.3576 355.774C76.2271 377.728 100.476 395.276 127.543 407.285C154.609 419.294 183.891 425.499 213.501 425.499C243.112 425.499 272.394 419.294 299.46 407.285C326.526 395.276 350.776 377.728 370.645 355.774L370.651 355.768C376.522 349.207 379.857 340.766 380.056 331.965C380.255 323.163 377.305 314.58 371.736 307.761L371.733 307.758C342.861 272.604 303.104 248.129 258.801 238.15C275.742 228.664 289.311 214.077 297.541 196.416C306.356 177.499 308.531 156.162 303.715 135.856C298.899 115.55 287.373 97.4627 271.001 84.5201C254.63 71.5775 234.371 64.5367 213.501 64.5367C192.632 64.5367 172.373 71.5775 156.001 84.5201C139.63 97.4627 128.104 115.55 123.288 135.856C118.471 156.162 120.647 177.499 129.462 196.416C137.692 214.077 151.261 228.664 168.201 238.15C123.899 248.129 84.1422 272.604 55.2693 307.758ZM137.818 157.367C137.818 142.398 142.257 127.765 150.573 115.319C158.889 102.873 170.709 93.1727 184.539 87.4444C198.368 81.7162 213.585 80.2174 228.266 83.1376C242.948 86.0579 256.433 93.266 267.017 103.851C277.602 114.435 284.81 127.921 287.73 142.602C290.651 157.283 289.152 172.5 283.424 186.329C277.695 200.159 267.995 211.979 255.549 220.295C243.103 228.611 228.471 233.05 213.503 233.05C193.437 233.027 174.2 225.046 160.011 210.857C145.822 196.669 137.841 177.432 137.818 157.367ZM358.017 344.35C339.744 364.539 317.443 380.674 292.553 391.718C267.661 402.762 240.732 408.468 213.501 408.468C186.269 408.468 159.34 402.762 134.448 391.718C109.559 380.675 87.2589 364.539 68.9861 344.352C65.8377 340.829 64.0499 336.298 63.9448 331.574C63.8397 326.85 65.4242 322.244 68.413 318.584C86.0402 297.164 108.191 279.914 133.276 268.07C158.362 256.226 185.759 250.083 213.5 250.083C241.241 250.083 268.638 256.226 293.724 268.07C318.808 279.913 340.959 297.164 358.586 318.583C361.576 322.243 363.161 326.849 363.056 331.574C362.951 336.297 361.164 340.827 358.017 344.35Z" fill="#11ABFE" stroke="#11ABFE" stroke-width="3"/>
</svg>
