<svg width="78" height="78" viewBox="0 0 78 78" fill="none" xmlns="http://www.w3.org/2000/svg">
<path fill-rule="evenodd" clip-rule="evenodd" d="M77.875 8.325C77.875 3.72682 74.1398 0 69.5312 0H8.34375C3.73522 0 0 3.72682 0 8.325V69.375C0 73.9732 3.73522 77.7 8.34375 77.7H69.5312C74.1398 77.7 77.875 73.9732 77.875 69.375V8.325ZM57.8778 72.15L29.9152 39.9572C29.3867 39.3495 28.6191 38.9999 27.8125 38.9999C27.0059 38.9999 26.2383 39.3495 25.7098 39.9572L5.5625 63.1534V69.375C5.5625 70.9068 6.8085 72.15 8.34375 72.15H57.8778ZM72.3125 51.0988L60.6647 39.4771C60.1168 38.9332 59.3686 38.6391 58.5982 38.6668C57.8278 38.6946 57.1018 39.0387 56.5957 39.6214L46.789 50.9101L65.2398 72.15H69.5312C71.0665 72.15 72.3125 70.9068 72.3125 69.375V51.0988ZM72.3125 43.2511V8.325C72.3125 6.7932 71.0665 5.55 69.5312 5.55H8.34375C6.8085 5.55 5.5625 6.7932 5.5625 8.325V54.6786L21.5074 36.322C23.0927 34.496 25.3928 33.4498 27.8125 33.4498C30.2322 33.4498 32.5323 34.496 34.1176 36.322L43.1094 46.6727L52.3932 35.9862C53.909 34.2407 56.0839 33.2029 58.4007 33.1196C60.7146 33.0364 62.9592 33.9188 64.5974 35.5533L72.3125 43.2511ZM38.9375 8.325C32.7965 8.325 27.8125 13.2978 27.8125 19.425C27.8125 25.5522 32.7965 30.525 38.9375 30.525C45.0785 30.525 50.0625 25.5522 50.0625 19.425C50.0625 13.2978 45.0785 8.325 38.9375 8.325ZM38.9375 13.875C42.008 13.875 44.5 16.3614 44.5 19.425C44.5 22.4886 42.008 24.975 38.9375 24.975C35.867 24.975 33.375 22.4886 33.375 19.425C33.375 16.3614 35.867 13.875 38.9375 13.875Z" fill="#8181EE"/>
</svg>
