<svg width="421" height="421" viewBox="0 0 421 421" fill="none" xmlns="http://www.w3.org/2000/svg">
<path d="M416.082 368.942L304.731 257.684C321.302 232.652 330.773 203.601 332.139 173.62C333.505 143.639 326.714 113.849 312.488 87.4161C298.262 60.9834 277.133 38.8968 251.347 23.5044C225.561 8.11206 196.083 -0.0106169 166.045 1.04149e-05C140.147 0.025182 114.613 6.09715 91.4793 17.7316C68.3461 29.366 48.254 46.2409 32.8058 67.0102C17.3576 87.7796 6.98078 111.869 2.50305 137.356C-1.97468 162.843 -0.429397 189.023 7.01563 213.808C14.4607 238.592 27.5994 261.296 45.3839 280.107C63.1683 298.918 85.1063 313.316 109.448 322.153C133.789 330.99 159.861 334.021 185.583 331.004C211.305 327.987 235.965 319.007 257.597 304.778L368.948 416.223C372.072 419.285 376.274 421 380.65 421C385.026 421 389.227 419.285 392.351 416.223L415.754 392.84C417.382 391.313 418.686 389.474 419.587 387.433C420.488 385.392 420.968 383.191 420.998 380.96C421.029 378.73 420.609 376.516 419.765 374.451C418.92 372.386 417.667 370.512 416.082 368.942ZM44.257 166.162C44.257 142.113 51.3942 118.604 64.7662 98.6082C78.1382 78.6123 97.1444 63.0274 119.381 53.8243C141.618 44.6212 166.087 42.2133 189.693 46.905C213.3 51.5967 234.984 63.1773 252.003 80.1824C269.022 97.1875 280.613 118.853 285.308 142.44C290.004 166.027 287.594 190.475 278.383 212.693C269.172 234.912 253.574 253.902 233.562 267.263C213.549 280.624 190.021 287.755 165.952 287.755C133.676 287.755 102.723 274.944 79.9006 252.141C57.0783 229.338 44.257 198.41 44.257 166.162Z" fill="#11ABFE"/>
</svg>
