<svg width="273" height="60" viewBox="0 0 273 60" fill="none" xmlns="http://www.w3.org/2000/svg">
<path d="M24.3893 21.721L23.2633 20.069C22.6626 20.4783 22.0997 20.9405 21.5813 21.45L22.9813 22.876C23.4152 22.4497 23.8864 22.0632 24.3893 21.721Z" fill="#8181EE"/>
<path d="M21.8114 24.259L20.1734 23.11C19.7554 23.7059 19.3923 24.3385 19.0884 25L20.9054 25.834C21.1594 25.2828 21.4627 24.7557 21.8114 24.259Z" fill="#8181EE"/>
<path d="M20.0663 31.155L18.0793 31.384C18.1624 32.1074 18.3114 32.8217 18.5243 33.518L20.4363 32.932C20.2591 32.3522 20.1352 31.7574 20.0663 31.155Z" fill="#8181EE"/>
<path d="M25.7205 41.214C26.401 41.4737 27.104 41.6705 27.8205 41.802L28.1825 39.835C27.5864 39.7254 27.0016 39.5614 26.4355 39.345L25.7205 41.214Z" fill="#8181EE"/>
<path d="M27.7003 20.267L27.2393 18.322C26.5314 18.489 25.8402 18.7203 25.1743 19.013L25.9743 20.843C26.5311 20.5993 27.1088 20.4066 27.7003 20.267Z" fill="#8181EE"/>
<path d="M22.0144 38.956C22.5576 39.441 23.1432 39.8761 23.7644 40.256L24.8044 38.547C24.2866 38.2317 23.7986 37.8699 23.3464 37.466L22.0144 38.956Z" fill="#8181EE"/>
<path d="M21.1243 34.61L19.3503 35.534C19.6867 36.1792 20.0806 36.7927 20.5273 37.367L22.1003 36.139C21.7294 35.6599 21.4027 35.1482 21.1243 34.61Z" fill="#8181EE"/>
<path d="M20.3004 27.546L18.3614 27.056C18.1837 27.7619 18.0706 28.4826 18.0234 29.209L20.0234 29.338C20.0608 28.7335 20.1535 28.1336 20.3004 27.546Z" fill="#8181EE"/>
<path d="M30.0005 18V20C32.6527 20 35.1962 21.0536 37.0716 22.9289C38.9469 24.8043 40.0005 27.3478 40.0005 30C40.0005 32.6522 38.9469 35.1957 37.0716 37.0711C35.1962 38.9464 32.6527 40 30.0005 40V42C33.1831 42 36.2353 40.7357 38.4858 38.4853C40.7362 36.2348 42.0005 33.1826 42.0005 30C42.0005 26.8174 40.7362 23.7652 38.4858 21.5147C36.2353 19.2643 33.1831 18 30.0005 18Z" fill="#8181EE"/>
<path d="M30.0005 33C30.5938 33 31.1739 32.8241 31.6672 32.4944C32.1605 32.1648 32.5451 31.6962 32.7721 31.148C32.9992 30.5999 33.0586 29.9967 32.9428 29.4147C32.8271 28.8328 32.5414 28.2982 32.1218 27.8787C31.7022 27.4591 31.1677 27.1734 30.5858 27.0576C30.0038 26.9419 29.4006 27.0013 28.8524 27.2284C28.3043 27.4554 27.8357 27.8399 27.5061 28.3333C27.1764 28.8266 27.0005 29.4067 27.0005 30C27.0005 30.7957 27.3166 31.5587 27.8792 32.1213C28.4418 32.6839 29.2048 33 30.0005 33ZM30.0005 29C30.1983 29 30.3916 29.0586 30.5561 29.1685C30.7205 29.2784 30.8487 29.4346 30.9244 29.6173C31.0001 29.8 31.0199 30.0011 30.9813 30.1951C30.9427 30.3891 30.8474 30.5673 30.7076 30.7071C30.5677 30.847 30.3896 30.9422 30.1956 30.9808C30.0016 31.0194 29.8005 30.9996 29.6178 30.9239C29.4351 30.8482 29.2789 30.72 29.169 30.5556C29.0591 30.3911 29.0005 30.1978 29.0005 30C29.0005 29.7348 29.1058 29.4804 29.2934 29.2929C29.4809 29.1054 29.7353 29 30.0005 29Z" fill="#8181EE"/>
<path d="M38.0002 30C38.0002 28.4178 37.5311 26.871 36.652 25.5554C35.773 24.2399 34.5235 23.2145 33.0617 22.609C31.5999 22.0035 29.9914 21.845 28.4395 22.1537C26.8877 22.4624 25.4622 23.2243 24.3434 24.3431C23.2246 25.462 22.4626 26.8874 22.154 28.4393C21.8453 29.9911 22.0037 31.5997 22.6092 33.0615C23.2147 34.5233 24.2401 35.7727 25.5557 36.6518C26.8713 37.5308 28.418 38 30.0002 38C32.1212 37.9976 34.1547 37.154 35.6545 35.6542C37.1542 34.1545 37.9979 32.121 38.0002 30ZM24.0902 31H25.0002C25.2655 31 25.5198 30.8946 25.7074 30.7071C25.8949 30.5196 26.0002 30.2652 26.0002 30C26.0002 29.7348 25.8949 29.4804 25.7074 29.2929C25.5198 29.1054 25.2655 29 25.0002 29H24.0902C24.2994 27.7739 24.8841 26.6429 25.7636 25.7634C26.6431 24.8838 27.7741 24.2991 29.0002 24.09V25C29.0002 25.2652 29.1056 25.5196 29.2931 25.7071C29.4807 25.8946 29.735 26 30.0002 26C30.2655 26 30.5198 25.8946 30.7074 25.7071C30.8949 25.5196 31.0002 25.2652 31.0002 25V24.09C32.2264 24.2991 33.3574 24.8838 34.2369 25.7634C35.1164 26.6429 35.7011 27.7739 35.9102 29H35.0002C34.735 29 34.4807 29.1054 34.2931 29.2929C34.1056 29.4804 34.0002 29.7348 34.0002 30C34.0002 30.2652 34.1056 30.5196 34.2931 30.7071C34.4807 30.8946 34.735 31 35.0002 31H35.9102C35.7011 32.2262 35.1164 33.3571 34.2369 34.2366C33.3574 35.1162 32.2264 35.7009 31.0002 35.91V35C31.0002 34.7348 30.8949 34.4804 30.7074 34.2929C30.5198 34.1054 30.2655 34 30.0002 34C29.735 34 29.4807 34.1054 29.2931 34.2929C29.1056 34.4804 29.0002 34.7348 29.0002 35V35.91C27.7741 35.7009 26.6431 35.1162 25.7636 34.2366C24.8841 33.3571 24.2994 32.2262 24.0902 31Z" fill="#8181EE"/>
<path d="M59.5684 29.177L42.4904 17.4C38.8116 14.8825 34.458 13.5355 30.0004 13.5355C25.5427 13.5355 21.1891 14.8825 17.5104 17.4L0.432367 29.177C0.29733 29.2701 0.187268 29.395 0.111881 29.5407C0.0364941 29.6863 -0.00190345 29.8483 7.25854e-05 30.0123C0.00204862 30.1763 0.0443376 30.3373 0.123212 30.4811C0.202087 30.625 0.315126 30.7472 0.452367 30.837L17.9434 42.3C21.5263 44.6474 25.7165 45.8978 29.9999 45.8978C34.2833 45.8978 38.4735 44.6474 42.0564 42.3L59.5474 30.84C59.6846 30.7502 59.7976 30.628 59.8765 30.4841C59.9554 30.3403 59.9977 30.1793 59.9997 30.0153C60.0016 29.8513 59.9632 29.6893 59.8879 29.5437C59.8125 29.398 59.7024 29.2731 59.5674 29.18L59.5684 29.177ZM40.9614 40.623C37.7044 42.7581 33.8948 43.8954 30.0004 43.8954C26.106 43.8954 22.2963 42.7581 19.0394 40.623L2.79237 29.979L18.6464 19.046C21.9908 16.7577 25.9486 15.5334 30.0009 15.5334C34.0532 15.5334 38.0109 16.7577 41.3554 19.046L57.2084 29.979L40.9614 40.623Z" fill="#8181EE"/>
<path d="M1.00049 8C1.2657 8 1.52006 7.89464 1.7076 7.70711C1.89513 7.51957 2.00049 7.26522 2.00049 7V2H7.00049C7.2657 2 7.52006 1.89464 7.70759 1.70711C7.89513 1.51957 8.00049 1.26522 8.00049 1C8.00049 0.734784 7.89513 0.48043 7.70759 0.292893C7.52006 0.105357 7.2657 0 7.00049 0H1.00049C0.735272 0 0.480918 0.105357 0.293381 0.292893C0.105845 0.48043 0.000488281 0.734784 0.000488281 1V7C0.000488281 7.26522 0.105845 7.51957 0.293381 7.70711C0.480918 7.89464 0.735272 8 1.00049 8Z" fill="#8181EE"/>
<path d="M59.0005 52C58.7353 52 58.4809 52.1054 58.2934 52.2929C58.1058 52.4804 58.0005 52.7348 58.0005 53V58H53.0005C52.7353 58 52.4809 58.1054 52.2934 58.2929C52.1058 58.4804 52.0005 58.7348 52.0005 59C52.0005 59.2652 52.1058 59.5196 52.2934 59.7071C52.4809 59.8946 52.7353 60 53.0005 60H59.0005C59.2657 60 59.5201 59.8946 59.7076 59.7071C59.8951 59.5196 60.0005 59.2652 60.0005 59V53C60.0005 52.7348 59.8951 52.4804 59.7076 52.2929C59.5201 52.1054 59.2657 52 59.0005 52Z" fill="#8181EE"/>
<path d="M7.00049 60C7.2657 60 7.52006 59.8946 7.70759 59.7071C7.89513 59.5196 8.00049 59.2652 8.00049 59C8.00049 58.7348 7.89513 58.4804 7.70759 58.2929C7.52006 58.1054 7.2657 58 7.00049 58H2.00049V53C2.00049 52.7348 1.89513 52.4804 1.7076 52.2929C1.52006 52.1054 1.2657 52 1.00049 52C0.735272 52 0.480918 52.1054 0.293381 52.2929C0.105845 52.4804 0.000488281 52.7348 0.000488281 53V59C0.000488281 59.2652 0.105845 59.5196 0.293381 59.7071C0.480918 59.8946 0.735272 60 1.00049 60H7.00049Z" fill="#8181EE"/>
<path d="M59.0005 0H53.0005C52.7353 0 52.4809 0.105357 52.2934 0.292893C52.1058 0.48043 52.0005 0.734784 52.0005 1C52.0005 1.26522 52.1058 1.51957 52.2934 1.70711C52.4809 1.89464 52.7353 2 53.0005 2H58.0005V7C58.0005 7.26522 58.1058 7.51957 58.2934 7.70711C58.4809 7.89464 58.7353 8 59.0005 8C59.2657 8 59.5201 7.89464 59.7076 7.70711C59.8951 7.51957 60.0005 7.26522 60.0005 7V1C60.0005 0.734784 59.8951 0.48043 59.7076 0.292893C59.5201 0.105357 59.2657 0 59.0005 0Z" fill="#8181EE"/>
<path d="M91.5474 32.3086H88.3599V37.1719C88.3599 37.8672 88.1958 38.3945 87.8677 38.7539C87.5396 39.1133 87.1255 39.293 86.6255 39.293C86.1021 39.293 85.6802 39.1172 85.3599 38.7656C85.0396 38.4062 84.8794 37.8828 84.8794 37.1953V23.9531C84.8794 23.1875 85.0552 22.6406 85.4067 22.3125C85.7583 21.9844 86.3169 21.8203 87.0825 21.8203H91.5474C92.8677 21.8203 93.8833 21.9219 94.5942 22.125C95.2974 22.3203 95.9028 22.6445 96.4106 23.0977C96.9263 23.5508 97.3169 24.1055 97.5825 24.7617C97.8481 25.418 97.981 26.1562 97.981 26.9766C97.981 28.7266 97.4419 30.0547 96.3638 30.9609C95.2856 31.8594 93.6802 32.3086 91.5474 32.3086ZM90.7036 24.4336H88.3599V29.6836H90.7036C91.5239 29.6836 92.2075 29.5977 92.7544 29.4258C93.3091 29.2539 93.731 28.9727 94.02 28.582C94.3091 28.1914 94.4536 27.6797 94.4536 27.0469C94.4536 26.2891 94.231 25.6719 93.7856 25.1953C93.2856 24.6875 92.2583 24.4336 90.7036 24.4336ZM103.793 23.4727V28.2188C104.2 27.75 104.594 27.3789 104.977 27.1055C105.368 26.832 105.797 26.6289 106.266 26.4961C106.735 26.3555 107.239 26.2852 107.778 26.2852C108.59 26.2852 109.309 26.457 109.934 26.8008C110.567 27.1445 111.063 27.6445 111.422 28.3008C111.649 28.6836 111.801 29.1133 111.879 29.5898C111.958 30.0586 111.997 30.6016 111.997 31.2188V37.3477C111.997 37.9883 111.848 38.4727 111.551 38.8008C111.262 39.1289 110.875 39.293 110.391 39.293C109.336 39.293 108.809 38.6445 108.809 37.3477V31.9453C108.809 30.9219 108.657 30.1367 108.352 29.5898C108.047 29.0352 107.469 28.7578 106.618 28.7578C106.047 28.7578 105.532 28.9219 105.071 29.25C104.618 29.5703 104.278 30.0117 104.051 30.5742C103.879 31.0508 103.793 31.8984 103.793 33.1172V37.3477C103.793 37.9805 103.649 38.4648 103.36 38.8008C103.079 39.1289 102.684 39.293 102.176 39.293C101.122 39.293 100.594 38.6445 100.594 37.3477V23.4727C100.594 22.8242 100.731 22.3398 101.004 22.0195C101.286 21.6914 101.676 21.5273 102.176 21.5273C102.684 21.5273 103.079 21.6914 103.36 22.0195C103.649 22.3477 103.793 22.832 103.793 23.4727ZM127.149 32.7891C127.149 33.7422 127 34.6211 126.704 35.4258C126.407 36.2305 125.977 36.9219 125.415 37.5C124.852 38.0781 124.18 38.5234 123.399 38.8359C122.618 39.1406 121.739 39.293 120.762 39.293C119.793 39.293 118.922 39.1367 118.149 38.8242C117.375 38.5117 116.704 38.0664 116.133 37.4883C115.571 36.9023 115.141 36.2148 114.844 35.4258C114.555 34.6289 114.411 33.75 114.411 32.7891C114.411 31.8203 114.559 30.9336 114.856 30.1289C115.153 29.3242 115.579 28.6367 116.133 28.0664C116.688 27.4961 117.36 27.0586 118.149 26.7539C118.938 26.4414 119.809 26.2852 120.762 26.2852C121.731 26.2852 122.61 26.4414 123.399 26.7539C124.188 27.0664 124.864 27.5117 125.426 28.0898C125.989 28.668 126.415 29.3555 126.704 30.1523C127 30.9492 127.149 31.8281 127.149 32.7891ZM123.938 32.7891C123.938 31.4844 123.649 30.4688 123.071 29.7422C122.5 29.0156 121.731 28.6523 120.762 28.6523C120.137 28.6523 119.586 28.8164 119.11 29.1445C118.633 29.4648 118.266 29.9414 118.008 30.5742C117.75 31.207 117.622 31.9453 117.622 32.7891C117.622 33.625 117.747 34.3555 117.997 34.9805C118.254 35.6055 118.618 36.0859 119.086 36.4219C119.563 36.75 120.122 36.9141 120.762 36.9141C121.731 36.9141 122.5 36.5508 123.071 35.8242C123.649 35.0898 123.938 34.0781 123.938 32.7891ZM129.856 26.5664H130.208V24.6445C130.208 24.1289 130.219 23.7266 130.243 23.4375C130.274 23.1406 130.352 22.8867 130.477 22.6758C130.602 22.457 130.782 22.2812 131.016 22.1484C131.25 22.0078 131.512 21.9375 131.801 21.9375C132.208 21.9375 132.575 22.0898 132.903 22.3945C133.122 22.5977 133.258 22.8477 133.313 23.1445C133.375 23.4336 133.407 23.8477 133.407 24.3867V26.5664H134.579C135.032 26.5664 135.375 26.6758 135.61 26.8945C135.852 27.1055 135.973 27.3789 135.973 27.7148C135.973 28.1445 135.801 28.4453 135.458 28.6172C135.122 28.7891 134.637 28.875 134.004 28.875H133.407V34.7578C133.407 35.2578 133.422 35.6445 133.454 35.918C133.493 36.1836 133.586 36.4023 133.735 36.5742C133.891 36.7383 134.141 36.8203 134.485 36.8203C134.672 36.8203 134.926 36.7891 135.247 36.7266C135.567 36.6562 135.817 36.6211 135.997 36.6211C136.254 36.6211 136.485 36.7266 136.688 36.9375C136.899 37.1406 137.004 37.3945 137.004 37.6992C137.004 38.2148 136.723 38.6094 136.161 38.8828C135.598 39.1562 134.79 39.293 133.735 39.293C132.735 39.293 131.977 39.125 131.461 38.7891C130.946 38.4531 130.606 37.9883 130.442 37.3945C130.286 36.8008 130.208 36.0078 130.208 35.0156V28.875H129.786C129.325 28.875 128.973 28.7656 128.731 28.5469C128.489 28.3281 128.368 28.0508 128.368 27.7148C128.368 27.3789 128.493 27.1055 128.743 26.8945C129 26.6758 129.372 26.5664 129.856 26.5664ZM150.165 32.7891C150.165 33.7422 150.016 34.6211 149.719 35.4258C149.422 36.2305 148.993 36.9219 148.43 37.5C147.868 38.0781 147.196 38.5234 146.415 38.8359C145.633 39.1406 144.754 39.293 143.778 39.293C142.809 39.293 141.938 39.1367 141.165 38.8242C140.391 38.5117 139.719 38.0664 139.149 37.4883C138.586 36.9023 138.157 36.2148 137.86 35.4258C137.571 34.6289 137.426 33.75 137.426 32.7891C137.426 31.8203 137.575 30.9336 137.872 30.1289C138.168 29.3242 138.594 28.6367 139.149 28.0664C139.704 27.4961 140.375 27.0586 141.165 26.7539C141.954 26.4414 142.825 26.2852 143.778 26.2852C144.747 26.2852 145.625 26.4414 146.415 26.7539C147.204 27.0664 147.879 27.5117 148.442 28.0898C149.004 28.668 149.43 29.3555 149.719 30.1523C150.016 30.9492 150.165 31.8281 150.165 32.7891ZM146.954 32.7891C146.954 31.4844 146.665 30.4688 146.086 29.7422C145.516 29.0156 144.747 28.6523 143.778 28.6523C143.153 28.6523 142.602 28.8164 142.125 29.1445C141.649 29.4648 141.282 29.9414 141.024 30.5742C140.766 31.207 140.637 31.9453 140.637 32.7891C140.637 33.625 140.762 34.3555 141.012 34.9805C141.27 35.6055 141.633 36.0859 142.102 36.4219C142.579 36.75 143.137 36.9141 143.778 36.9141C144.747 36.9141 145.516 36.5508 146.086 35.8242C146.665 35.0898 146.954 34.0781 146.954 32.7891ZM173.555 33.5742C173.555 34.1211 173.418 34.7148 173.145 35.3555C172.879 35.9883 172.458 36.6133 171.879 37.2305C171.301 37.8398 170.563 38.3359 169.665 38.7188C168.766 39.1016 167.719 39.293 166.524 39.293C165.618 39.293 164.793 39.207 164.051 39.0352C163.309 38.8633 162.633 38.5977 162.024 38.2383C161.422 37.8711 160.868 37.3906 160.36 36.7969C159.907 36.2578 159.52 35.6562 159.2 34.9922C158.879 34.3203 158.637 33.6055 158.473 32.8477C158.317 32.0898 158.239 31.2852 158.239 30.4336C158.239 29.0508 158.438 27.8125 158.836 26.7188C159.243 25.625 159.821 24.6914 160.571 23.918C161.321 23.1367 162.2 22.543 163.208 22.1367C164.215 21.7305 165.29 21.5273 166.43 21.5273C167.821 21.5273 169.059 21.8047 170.145 22.3594C171.231 22.9141 172.063 23.6016 172.641 24.4219C173.219 25.2344 173.508 26.0039 173.508 26.7305C173.508 27.1289 173.368 27.4805 173.086 27.7852C172.805 28.0898 172.465 28.2422 172.067 28.2422C171.622 28.2422 171.286 28.1367 171.059 27.9258C170.84 27.7148 170.594 27.3516 170.321 26.8359C169.868 25.9844 169.333 25.3477 168.715 24.9258C168.106 24.5039 167.352 24.293 166.454 24.293C165.024 24.293 163.883 24.8359 163.032 25.9219C162.188 27.0078 161.766 28.5508 161.766 30.5508C161.766 31.8867 161.954 33 162.329 33.8906C162.704 34.7734 163.235 35.4336 163.922 35.8711C164.61 36.3086 165.415 36.5273 166.336 36.5273C167.336 36.5273 168.18 36.2812 168.868 35.7891C169.563 35.2891 170.086 34.5586 170.438 33.5977C170.586 33.1445 170.77 32.7773 170.989 32.4961C171.208 32.207 171.559 32.0625 172.043 32.0625C172.458 32.0625 172.813 32.207 173.11 32.4961C173.407 32.7852 173.555 33.1445 173.555 33.5742ZM184.547 37.4883C183.774 38.0898 183.024 38.543 182.297 38.8477C181.579 39.1445 180.77 39.293 179.872 39.293C179.051 39.293 178.329 39.1328 177.704 38.8125C177.086 38.4844 176.61 38.043 176.274 37.4883C175.938 36.9336 175.77 36.332 175.77 35.6836C175.77 34.8086 176.047 34.0625 176.602 33.4453C177.157 32.8281 177.918 32.4141 178.887 32.2031C179.09 32.1562 179.594 32.0508 180.399 31.8867C181.204 31.7227 181.891 31.5742 182.461 31.4414C183.04 31.3008 183.665 31.1328 184.336 30.9375C184.297 30.0938 184.125 29.4766 183.821 29.0859C183.524 28.6875 182.903 28.4883 181.958 28.4883C181.145 28.4883 180.532 28.6016 180.118 28.8281C179.711 29.0547 179.36 29.3945 179.063 29.8477C178.774 30.3008 178.567 30.6016 178.442 30.75C178.325 30.8906 178.067 30.9609 177.668 30.9609C177.309 30.9609 176.997 30.8477 176.731 30.6211C176.473 30.3867 176.344 30.0898 176.344 29.7305C176.344 29.168 176.543 28.6211 176.942 28.0898C177.34 27.5586 177.961 27.1211 178.805 26.7773C179.649 26.4336 180.7 26.2617 181.958 26.2617C183.364 26.2617 184.469 26.4297 185.274 26.7656C186.079 27.0938 186.645 27.6172 186.973 28.3359C187.309 29.0547 187.477 30.0078 187.477 31.1953C187.477 31.9453 187.473 32.582 187.465 33.1055C187.465 33.6289 187.461 34.2109 187.454 34.8516C187.454 35.4531 187.551 36.082 187.747 36.7383C187.95 37.3867 188.051 37.8047 188.051 37.9922C188.051 38.3203 187.895 38.6211 187.583 38.8945C187.278 39.1602 186.93 39.293 186.54 39.293C186.211 39.293 185.887 39.1406 185.567 38.8359C185.247 38.5234 184.907 38.0742 184.547 37.4883ZM184.336 32.8594C183.868 33.0312 183.184 33.2148 182.286 33.4102C181.395 33.5977 180.778 33.7383 180.434 33.832C180.09 33.918 179.762 34.0938 179.45 34.3594C179.137 34.6172 178.981 34.9805 178.981 35.4492C178.981 35.9336 179.165 36.3477 179.532 36.6914C179.899 37.0273 180.379 37.1953 180.973 37.1953C181.606 37.1953 182.188 37.0586 182.719 36.7852C183.258 36.5039 183.653 36.1445 183.903 35.707C184.192 35.2227 184.336 34.4258 184.336 33.3164V32.8594ZM190.301 26.5664H190.653V24.6445C190.653 24.1289 190.665 23.7266 190.688 23.4375C190.719 23.1406 190.797 22.8867 190.922 22.6758C191.047 22.457 191.227 22.2812 191.461 22.1484C191.696 22.0078 191.958 21.9375 192.247 21.9375C192.653 21.9375 193.02 22.0898 193.348 22.3945C193.567 22.5977 193.704 22.8477 193.758 23.1445C193.821 23.4336 193.852 23.8477 193.852 24.3867V26.5664H195.024C195.477 26.5664 195.821 26.6758 196.055 26.8945C196.297 27.1055 196.418 27.3789 196.418 27.7148C196.418 28.1445 196.247 28.4453 195.903 28.6172C195.567 28.7891 195.083 28.875 194.45 28.875H193.852V34.7578C193.852 35.2578 193.868 35.6445 193.899 35.918C193.938 36.1836 194.032 36.4023 194.18 36.5742C194.336 36.7383 194.586 36.8203 194.93 36.8203C195.118 36.8203 195.372 36.7891 195.692 36.7266C196.012 36.6562 196.262 36.6211 196.442 36.6211C196.7 36.6211 196.93 36.7266 197.133 36.9375C197.344 37.1406 197.45 37.3945 197.45 37.6992C197.45 38.2148 197.168 38.6094 196.606 38.8828C196.043 39.1562 195.235 39.293 194.18 39.293C193.18 39.293 192.422 39.125 191.907 38.7891C191.391 38.4531 191.051 37.9883 190.887 37.3945C190.731 36.8008 190.653 36.0078 190.653 35.0156V28.875H190.231C189.77 28.875 189.418 28.7656 189.176 28.5469C188.934 28.3281 188.813 28.0508 188.813 27.7148C188.813 27.3789 188.938 27.1055 189.188 26.8945C189.446 26.6758 189.817 26.5664 190.301 26.5664ZM206.719 37.4883C205.946 38.0898 205.196 38.543 204.469 38.8477C203.75 39.1445 202.942 39.293 202.043 39.293C201.223 39.293 200.5 39.1328 199.875 38.8125C199.258 38.4844 198.782 38.043 198.446 37.4883C198.11 36.9336 197.942 36.332 197.942 35.6836C197.942 34.8086 198.219 34.0625 198.774 33.4453C199.329 32.8281 200.09 32.4141 201.059 32.2031C201.262 32.1562 201.766 32.0508 202.571 31.8867C203.375 31.7227 204.063 31.5742 204.633 31.4414C205.211 31.3008 205.836 31.1328 206.508 30.9375C206.469 30.0938 206.297 29.4766 205.993 29.0859C205.696 28.6875 205.075 28.4883 204.129 28.4883C203.317 28.4883 202.704 28.6016 202.29 28.8281C201.883 29.0547 201.532 29.3945 201.235 29.8477C200.946 30.3008 200.739 30.6016 200.614 30.75C200.497 30.8906 200.239 30.9609 199.84 30.9609C199.481 30.9609 199.168 30.8477 198.903 30.6211C198.645 30.3867 198.516 30.0898 198.516 29.7305C198.516 29.168 198.715 28.6211 199.114 28.0898C199.512 27.5586 200.133 27.1211 200.977 26.7773C201.821 26.4336 202.872 26.2617 204.129 26.2617C205.536 26.2617 206.641 26.4297 207.446 26.7656C208.25 27.0938 208.817 27.6172 209.145 28.3359C209.481 29.0547 209.649 30.0078 209.649 31.1953C209.649 31.9453 209.645 32.582 209.637 33.1055C209.637 33.6289 209.633 34.2109 209.625 34.8516C209.625 35.4531 209.723 36.082 209.918 36.7383C210.122 37.3867 210.223 37.8047 210.223 37.9922C210.223 38.3203 210.067 38.6211 209.754 38.8945C209.45 39.1602 209.102 39.293 208.711 39.293C208.383 39.293 208.059 39.1406 207.739 38.8359C207.418 38.5234 207.079 38.0742 206.719 37.4883ZM206.508 32.8594C206.04 33.0312 205.356 33.2148 204.458 33.4102C203.567 33.5977 202.95 33.7383 202.606 33.832C202.262 33.918 201.934 34.0938 201.622 34.3594C201.309 34.6172 201.153 34.9805 201.153 35.4492C201.153 35.9336 201.336 36.3477 201.704 36.6914C202.071 37.0273 202.551 37.1953 203.145 37.1953C203.778 37.1953 204.36 37.0586 204.891 36.7852C205.43 36.5039 205.825 36.1445 206.075 35.707C206.364 35.2227 206.508 34.4258 206.508 33.3164V32.8594ZM212.907 37.3477V23.4727C212.907 22.832 213.047 22.3477 213.329 22.0195C213.618 21.6914 214.004 21.5273 214.489 21.5273C214.973 21.5273 215.364 21.6914 215.661 22.0195C215.958 22.3398 216.106 22.8242 216.106 23.4727V37.3477C216.106 37.9961 215.954 38.4844 215.649 38.8125C215.352 39.1328 214.965 39.293 214.489 39.293C214.02 39.293 213.637 39.125 213.34 38.7891C213.051 38.4531 212.907 37.9727 212.907 37.3477ZM231.399 32.7891C231.399 33.7422 231.25 34.6211 230.954 35.4258C230.657 36.2305 230.227 36.9219 229.665 37.5C229.102 38.0781 228.43 38.5234 227.649 38.8359C226.868 39.1406 225.989 39.293 225.012 39.293C224.043 39.293 223.172 39.1367 222.399 38.8242C221.625 38.5117 220.954 38.0664 220.383 37.4883C219.821 36.9023 219.391 36.2148 219.094 35.4258C218.805 34.6289 218.661 33.75 218.661 32.7891C218.661 31.8203 218.809 30.9336 219.106 30.1289C219.403 29.3242 219.829 28.6367 220.383 28.0664C220.938 27.4961 221.61 27.0586 222.399 26.7539C223.188 26.4414 224.059 26.2852 225.012 26.2852C225.981 26.2852 226.86 26.4414 227.649 26.7539C228.438 27.0664 229.114 27.5117 229.676 28.0898C230.239 28.668 230.665 29.3555 230.954 30.1523C231.25 30.9492 231.399 31.8281 231.399 32.7891ZM228.188 32.7891C228.188 31.4844 227.899 30.4688 227.321 29.7422C226.75 29.0156 225.981 28.6523 225.012 28.6523C224.387 28.6523 223.836 28.8164 223.36 29.1445C222.883 29.4648 222.516 29.9414 222.258 30.5742C222 31.207 221.872 31.9453 221.872 32.7891C221.872 33.625 221.997 34.3555 222.247 34.9805C222.504 35.6055 222.868 36.0859 223.336 36.4219C223.813 36.75 224.372 36.9141 225.012 36.9141C225.981 36.9141 226.75 36.5508 227.321 35.8242C227.899 35.0898 228.188 34.0781 228.188 32.7891ZM245.696 28.6289V37.9219C245.696 38.9844 245.583 39.8984 245.356 40.6641C245.129 41.4297 244.766 42.0625 244.266 42.5625C243.766 43.0625 243.11 43.4336 242.297 43.6758C241.493 43.918 240.489 44.0391 239.286 44.0391C238.184 44.0391 237.2 43.8828 236.333 43.5703C235.465 43.2656 234.797 42.8672 234.329 42.375C233.86 41.8906 233.625 41.3906 233.625 40.875C233.625 40.4844 233.758 40.1641 234.024 39.9141C234.29 39.6719 234.61 39.5508 234.985 39.5508C235.454 39.5508 235.864 39.7578 236.215 40.1719C236.387 40.3828 236.563 40.5938 236.743 40.8047C236.93 41.0234 237.133 41.207 237.352 41.3555C237.579 41.5117 237.848 41.625 238.161 41.6953C238.473 41.7734 238.833 41.8125 239.239 41.8125C240.067 41.8125 240.708 41.6953 241.161 41.4609C241.622 41.2344 241.942 40.9141 242.122 40.5C242.309 40.0859 242.418 39.6406 242.45 39.1641C242.481 38.6953 242.504 37.9375 242.52 36.8906C242.028 37.5781 241.458 38.1016 240.809 38.4609C240.168 38.8203 239.403 39 238.512 39C237.442 39 236.504 38.7266 235.7 38.1797C234.903 37.6328 234.29 36.8672 233.86 35.8828C233.43 34.8984 233.215 33.7617 233.215 32.4727C233.215 31.5117 233.344 30.6445 233.602 29.8711C233.868 29.0977 234.243 28.4453 234.727 27.9141C235.211 27.3828 235.77 26.9844 236.403 26.7188C237.036 26.4453 237.731 26.3086 238.489 26.3086C239.395 26.3086 240.18 26.4844 240.844 26.8359C241.508 27.1797 242.125 27.7227 242.696 28.4648V28.0312C242.696 27.4766 242.833 27.0469 243.106 26.7422C243.379 26.4375 243.731 26.2852 244.161 26.2852C244.778 26.2852 245.188 26.4883 245.391 26.8945C245.594 27.293 245.696 27.8711 245.696 28.6289ZM236.426 32.6836C236.426 33.9805 236.708 34.9609 237.27 35.625C237.84 36.2891 238.575 36.6211 239.473 36.6211C240.004 36.6211 240.504 36.4805 240.973 36.1992C241.45 35.9102 241.836 35.4805 242.133 34.9102C242.43 34.332 242.579 33.6328 242.579 32.8125C242.579 31.5078 242.29 30.4922 241.711 29.7656C241.141 29.0391 240.387 28.6758 239.45 28.6758C238.536 28.6758 237.801 29.0234 237.247 29.7188C236.7 30.4141 236.426 31.4023 236.426 32.6836ZM257.25 33.5742H250.993C251 34.3008 251.145 34.9414 251.426 35.4961C251.715 36.0508 252.094 36.4688 252.563 36.75C253.04 37.0312 253.563 37.1719 254.133 37.1719C254.516 37.1719 254.864 37.1289 255.176 37.043C255.497 36.9492 255.805 36.8086 256.102 36.6211C256.399 36.4258 256.672 36.2188 256.922 36C257.172 35.7812 257.497 35.4844 257.895 35.1094C258.059 34.9688 258.293 34.8984 258.598 34.8984C258.926 34.8984 259.192 34.9883 259.395 35.168C259.598 35.3477 259.7 35.6016 259.7 35.9297C259.7 36.2188 259.586 36.5586 259.36 36.9492C259.133 37.332 258.79 37.7031 258.329 38.0625C257.875 38.4141 257.301 38.707 256.606 38.9414C255.918 39.1758 255.125 39.293 254.227 39.293C252.172 39.293 250.575 38.707 249.434 37.5352C248.293 36.3633 247.723 34.7734 247.723 32.7656C247.723 31.8203 247.864 30.9453 248.145 30.1406C248.426 29.3281 248.836 28.6328 249.375 28.0547C249.915 27.4766 250.579 27.0352 251.368 26.7305C252.157 26.418 253.032 26.2617 253.993 26.2617C255.243 26.2617 256.313 26.5273 257.204 27.0586C258.102 27.582 258.774 28.2617 259.219 29.0977C259.665 29.9336 259.887 30.7852 259.887 31.6523C259.887 32.457 259.657 32.9805 259.196 33.2227C258.735 33.457 258.086 33.5742 257.25 33.5742ZM250.993 31.7578H256.793C256.715 30.6641 256.418 29.8477 255.903 29.3086C255.395 28.7617 254.723 28.4883 253.887 28.4883C253.09 28.4883 252.434 28.7656 251.918 29.3203C251.411 29.8672 251.102 30.6797 250.993 31.7578ZM265.77 34.6758V37.3477C265.77 37.9961 265.618 38.4844 265.313 38.8125C265.008 39.1328 264.622 39.293 264.153 39.293C263.692 39.293 263.313 39.1289 263.016 38.8008C262.719 38.4727 262.571 37.9883 262.571 37.3477V28.4414C262.571 27.0039 263.09 26.2852 264.129 26.2852C264.661 26.2852 265.043 26.4531 265.278 26.7891C265.512 27.125 265.641 27.6211 265.665 28.2773C266.047 27.6211 266.438 27.125 266.836 26.7891C267.243 26.4531 267.782 26.2852 268.454 26.2852C269.125 26.2852 269.778 26.4531 270.411 26.7891C271.043 27.125 271.36 27.5703 271.36 28.125C271.36 28.5156 271.223 28.8398 270.95 29.0977C270.684 29.3477 270.395 29.4727 270.083 29.4727C269.965 29.4727 269.68 29.4023 269.227 29.2617C268.782 29.1133 268.387 29.0391 268.043 29.0391C267.575 29.0391 267.192 29.1641 266.895 29.4141C266.598 29.6562 266.368 30.0195 266.204 30.5039C266.04 30.9883 265.926 31.5664 265.864 32.2383C265.801 32.9023 265.77 33.7148 265.77 34.6758Z" fill="#8181EE"/>
</svg>
