<svg width="60" height="60" viewBox="0 0 60 60" fill="none" xmlns="http://www.w3.org/2000/svg">
<path d="M24.3894 21.721L23.2634 20.069C22.6627 20.4783 22.0998 20.9405 21.5814 21.45L22.9814 22.876C23.4153 22.4497 23.8865 22.0632 24.3894 21.721Z" fill="#8181ee"/>
<path d="M21.8114 24.259L20.1734 23.11C19.7554 23.7059 19.3923 24.3385 19.0884 25L20.9054 25.834C21.1594 25.2828 21.4627 24.7557 21.8114 24.259Z" fill="#8181ee"/>
<path d="M20.0663 31.155L18.0793 31.384C18.1624 32.1074 18.3114 32.8217 18.5243 33.518L20.4363 32.932C20.2591 32.3522 20.1352 31.7574 20.0663 31.155Z" fill="#8181ee"/>
<path d="M25.7203 41.214C26.4009 41.4737 27.1039 41.6705 27.8203 41.802L28.1823 39.835C27.5863 39.7254 27.0015 39.5614 26.4353 39.345L25.7203 41.214Z" fill="#8181ee"/>
<path d="M27.7004 20.267L27.2394 18.322C26.5315 18.489 25.8403 18.7203 25.1744 19.013L25.9744 20.843C26.5312 20.5993 27.1089 20.4066 27.7004 20.267Z" fill="#8181ee"/>
<path d="M22.0143 38.956C22.5575 39.441 23.1432 39.8761 23.7643 40.256L24.8043 38.547C24.2865 38.2317 23.7985 37.8699 23.3463 37.466L22.0143 38.956Z" fill="#8181ee"/>
<path d="M21.1243 34.61L19.3503 35.534C19.6867 36.1792 20.0806 36.7927 20.5273 37.367L22.1003 36.139C21.7294 35.6599 21.4027 35.1482 21.1243 34.61Z" fill="#8181ee"/>
<path d="M20.3004 27.546L18.3614 27.056C18.1836 27.7619 18.0705 28.4826 18.0234 29.209L20.0234 29.338C20.0608 28.7335 20.1535 28.1336 20.3004 27.546Z" fill="#8181ee"/>
<path d="M30.0004 18V20C32.6525 20 35.1961 21.0536 37.0714 22.9289C38.9468 24.8043 40.0004 27.3478 40.0004 30C40.0004 32.6522 38.9468 35.1957 37.0714 37.0711C35.1961 38.9464 32.6525 40 30.0004 40V42C33.183 42 36.2352 40.7357 38.4856 38.4853C40.7361 36.2348 42.0004 33.1826 42.0004 30C42.0004 26.8174 40.7361 23.7652 38.4856 21.5147C36.2352 19.2643 33.183 18 30.0004 18Z" fill="#8181ee"/>
<path d="M30.0004 33C30.5937 33 31.1737 32.8241 31.6671 32.4944C32.1604 32.1648 32.5449 31.6962 32.772 31.148C32.9991 30.5999 33.0585 29.9967 32.9427 29.4147C32.827 28.8328 32.5412 28.2982 32.1217 27.8787C31.7021 27.4591 31.1676 27.1734 30.5856 27.0576C30.0037 26.9419 29.4005 27.0013 28.8523 27.2284C28.3041 27.4554 27.8356 27.8399 27.506 28.3333C27.1763 28.8266 27.0004 29.4067 27.0004 30C27.0004 30.7957 27.3164 31.5587 27.879 32.1213C28.4417 32.6839 29.2047 33 30.0004 33ZM30.0004 29C30.1981 29 30.3915 29.0586 30.5559 29.1685C30.7204 29.2784 30.8486 29.4346 30.9242 29.6173C30.9999 29.8 31.0197 30.0011 30.9812 30.1951C30.9426 30.3891 30.8473 30.5673 30.7075 30.7071C30.5676 30.847 30.3894 30.9422 30.1955 30.9808C30.0015 31.0194 29.8004 30.9996 29.6177 30.9239C29.435 30.8482 29.2788 30.72 29.1689 30.5556C29.059 30.3911 29.0004 30.1978 29.0004 30C29.0004 29.7348 29.1057 29.4804 29.2933 29.2929C29.4808 29.1054 29.7351 29 30.0004 29Z" fill="#8181ee"/>
<path d="M38.0004 30C38.0004 28.4178 37.5312 26.871 36.6521 25.5554C35.7731 24.2399 34.5236 23.2145 33.0618 22.609C31.6 22.0035 29.9915 21.845 28.4396 22.1537C26.8878 22.4624 25.4623 23.2243 24.3435 24.3431C23.2247 25.462 22.4628 26.8874 22.1541 28.4393C21.8454 29.9911 22.0038 31.5997 22.6093 33.0615C23.2148 34.5233 24.2402 35.7727 25.5558 36.6518C26.8714 37.5308 28.4181 38 30.0004 38C32.1214 37.9976 34.1548 37.154 35.6546 35.6542C37.1544 34.1545 37.998 32.121 38.0004 30ZM24.0904 31H25.0004C25.2656 31 25.5199 30.8946 25.7075 30.7071C25.895 30.5196 26.0004 30.2652 26.0004 30C26.0004 29.7348 25.895 29.4804 25.7075 29.2929C25.5199 29.1054 25.2656 29 25.0004 29H24.0904C24.2995 27.7739 24.8842 26.6429 25.7637 25.7634C26.6433 24.8838 27.7742 24.2991 29.0004 24.09V25C29.0004 25.2652 29.1057 25.5196 29.2933 25.7071C29.4808 25.8946 29.7352 26 30.0004 26C30.2656 26 30.5199 25.8946 30.7075 25.7071C30.895 25.5196 31.0004 25.2652 31.0004 25V24.09C32.2265 24.2991 33.3575 24.8838 34.237 25.7634C35.1166 26.6429 35.7013 27.7739 35.9104 29H35.0004C34.7352 29 34.4808 29.1054 34.2933 29.2929C34.1057 29.4804 34.0004 29.7348 34.0004 30C34.0004 30.2652 34.1057 30.5196 34.2933 30.7071C34.4808 30.8946 34.7352 31 35.0004 31H35.9104C35.7013 32.2262 35.1166 33.3571 34.237 34.2366C33.3575 35.1162 32.2265 35.7009 31.0004 35.91V35C31.0004 34.7348 30.895 34.4804 30.7075 34.2929C30.5199 34.1054 30.2656 34 30.0004 34C29.7352 34 29.4808 34.1054 29.2933 34.2929C29.1057 34.4804 29.0004 34.7348 29.0004 35V35.91C27.7742 35.7009 26.6433 35.1162 25.7637 34.2366C24.8842 33.3571 24.2995 32.2262 24.0904 31Z" fill="#8181ee"/>
<path d="M59.5684 29.177L42.4904 17.4C38.8116 14.8825 34.458 13.5355 30.0004 13.5355C25.5427 13.5355 21.1891 14.8825 17.5104 17.4L0.432367 29.177C0.29733 29.2701 0.187268 29.395 0.111881 29.5407C0.0364941 29.6863 -0.00190345 29.8483 7.25854e-05 30.0123C0.00204862 30.1763 0.0443376 30.3373 0.123212 30.4811C0.202087 30.625 0.315126 30.7472 0.452367 30.837L17.9434 42.3C21.5263 44.6474 25.7165 45.8978 29.9999 45.8978C34.2833 45.8978 38.4735 44.6474 42.0564 42.3L59.5474 30.84C59.6846 30.7502 59.7976 30.628 59.8765 30.4841C59.9554 30.3403 59.9977 30.1793 59.9997 30.0153C60.0016 29.8513 59.9632 29.6893 59.8879 29.5437C59.8125 29.398 59.7024 29.2731 59.5674 29.18L59.5684 29.177ZM40.9614 40.623C37.7044 42.7581 33.8948 43.8954 30.0004 43.8954C26.106 43.8954 22.2963 42.7581 19.0394 40.623L2.79237 29.979L18.6464 19.046C21.9908 16.7577 25.9486 15.5334 30.0009 15.5334C34.0532 15.5334 38.0109 16.7577 41.3554 19.046L57.2084 29.979L40.9614 40.623Z" fill="#8181ee"/>
<path d="M1.00037 8C1.26558 8 1.51994 7.89464 1.70747 7.70711C1.89501 7.51957 2.00037 7.26522 2.00037 7V2H7.00037C7.26558 2 7.51994 1.89464 7.70747 1.70711C7.89501 1.51957 8.00037 1.26522 8.00037 1C8.00037 0.734784 7.89501 0.48043 7.70747 0.292893C7.51994 0.105357 7.26558 0 7.00037 0H1.00037C0.73515 0 0.480796 0.105357 0.293259 0.292893C0.105723 0.48043 0.000366211 0.734784 0.000366211 1V7C0.000366211 7.26522 0.105723 7.51957 0.293259 7.70711C0.480796 7.89464 0.73515 8 1.00037 8Z" fill="#8181ee"/>
<path d="M59.0004 52C58.7351 52 58.4808 52.1054 58.2933 52.2929C58.1057 52.4804 58.0004 52.7348 58.0004 53V58H53.0004C52.7351 58 52.4808 58.1054 52.2933 58.2929C52.1057 58.4804 52.0004 58.7348 52.0004 59C52.0004 59.2652 52.1057 59.5196 52.2933 59.7071C52.4808 59.8946 52.7351 60 53.0004 60H59.0004C59.2656 60 59.5199 59.8946 59.7075 59.7071C59.895 59.5196 60.0004 59.2652 60.0004 59V53C60.0004 52.7348 59.895 52.4804 59.7075 52.2929C59.5199 52.1054 59.2656 52 59.0004 52Z" fill="#8181ee"/>
<path d="M7.00037 60C7.26558 60 7.51994 59.8946 7.70747 59.7071C7.89501 59.5196 8.00037 59.2652 8.00037 59C8.00037 58.7348 7.89501 58.4804 7.70747 58.2929C7.51994 58.1054 7.26558 58 7.00037 58H2.00037V53C2.00037 52.7348 1.89501 52.4804 1.70747 52.2929C1.51994 52.1054 1.26558 52 1.00037 52C0.73515 52 0.480796 52.1054 0.293259 52.2929C0.105723 52.4804 0.000366211 52.7348 0.000366211 53V59C0.000366211 59.2652 0.105723 59.5196 0.293259 59.7071C0.480796 59.8946 0.73515 60 1.00037 60H7.00037Z" fill="#8181ee"/>
<path d="M59.0004 0H53.0004C52.7351 0 52.4808 0.105357 52.2933 0.292893C52.1057 0.48043 52.0004 0.734784 52.0004 1C52.0004 1.26522 52.1057 1.51957 52.2933 1.70711C52.4808 1.89464 52.7351 2 53.0004 2H58.0004V7C58.0004 7.26522 58.1057 7.51957 58.2933 7.70711C58.4808 7.89464 58.7351 8 59.0004 8C59.2656 8 59.5199 7.89464 59.7075 7.70711C59.895 7.51957 60.0004 7.26522 60.0004 7V1C60.0004 0.734784 59.895 0.48043 59.7075 0.292893C59.5199 0.105357 59.2656 0 59.0004 0Z" fill="#8181ee"/>
</svg>
